
<svg xmlns="http://www.w3.org/2000/svg" viewBox="0 0 50 50">
  <g fill="none" fill-rule="evenodd">
    <circle fill="#1f0633" cx="25" cy="25" r="23"/>
    <path d="M16.4 37.8l2.6-1.5c.5.8 1 1.6 2 1.6 1.1 0 1.8-.4 1.8-2V25.1h3.1V36c0 3.3-1.9 4.8-4.7 4.8-2 .1-4-1-4.8-2.9M27.6 37.5l2.6-1.5c.6 1.2 1.8 2 3.1 2 1.4 0 2.2-.7 2.2-1.7s-.9-1.4-2.3-2l-.8-.4c-2.3-1-3.8-2.2-3.8-4.8 0-2.3 1.8-4.1 4.6-4.1 1.9-.2 3.7.8 4.5 2.5L35.3 29a2.2 2.2 0 00-2-1.4 1.4 1.4 0 00-1.6 1.4c0 1 .6 1.3 2 1.9l.8.3c2.6 1.2 4.2 2.4 4.2 5 0 2.9-2.3 4.4-5.3 4.4a6 6 0 01-5.8-3.2" fill="#f00" fill-rule="nonzero"/>
  </g>
</svg>